{"title":"Pan.2015.BRRiP.XViD.AC3.5.1.ReLeNTLesS","uid":12946890,"size":1724202722,"categoryP":"video","categoryS":"movies","magnet":"?xt=urn:btih:e00792bccb3b83556bbac52c131736aaaf04fac8&amp;dn=Pan.2015.BRRiP.XViD.AC3.5.1.ReLeNTLesS&amp;tr=udp%3A%2F%2Ftracker.leechers-paradise.org%3A6969&amp;tr=udp%3A%2F%2Fzer0day.ch%3A1337&amp;tr=udp%3A%2F%2Fopen.demonii.com%3A1337&amp;tr=udp%3A%2F%2Ftracker.coppersurfer.tk%3A6969&amp;tr=udp%3A%2F%2Fexodus.desync.com%3A6969","seeders":0,"leechers":0,"uploader":"TvTeam","files":4,"time":1449689394,"description":"------------------------------------------------------------------------\r\n\r  https://www.torrenting.com\r\n\r\nSign up is OPEN - for time being. Come and have fun.\r\n\r\n------------------------------------------------------------------------P0STER\r\n[img]http://i.imgur.com/PLuFgtO.png[/img]\r\n\r\niMDB: http://www.imdb.com/title/tt3332064/\r\n\r\nGeneral\r\nComplete name               : Pan.2015.BRRiP.XViD.AC3.5.1.ReLeNTLesS.avi\r\nFormat                      : AVI\r\nFormat/Info                 : Audio Video Interleave\r\nFile size                   : 1.58 GiB\r\nDuration                    : 1h 51mn\r\nOverall bit rate            : 2 033 Kbps\r\n\r\nVideo\r\nID                          : 0\r\nFormat                      : MPEG-4 Visual\r\nFormat profile              : Advanced   \r\nFormat settings, BVOP       : 1\r\nFormat settings, QPel       : No\r\nFormat settings, GMC        : No warppoints\r\nFormat settings, Matrix     : Default (H.263)\r\nCodec ID                    : XVID\r\nCodec ID/Hint               : XviD\r\nDuration                    : 1h 51mn\r\nBit rate                    : 1 706 Kbps\r\nWidth                       : 720 pixels\r\nHeight                      : 304 pixels\r\nDisplay aspect ratio        : 2.35:1\r\nFrame rate                  : 23.976 (24000/1001) fps\r\nColor space                 : YUV\r\nChroma subsampling          : 4:2:0\r\nBit depth                   : 8 bits\r\nScan type                   : Progressive\r\nCompression mode            : Lossy\r\nBits/(Pixel*Frame)          : 0.325\r\nStream size                 : 1.33 GiB (84%)\r\nWriting library             : XviD 67\r\n\r\nAudio\r\nID                          : 1\r\nFormat                      : AC-3\r\nFormat/Info                 : Audio Coding 3\r\nMode extension              : CM (complete main)\r\nFormat settings, Endianness : Big\r\nCodec ID                    : 2000\r\nDuration                    : 1h 51mn\r\nBit rate mode               : Constant\r\nBit rate                    : 320 Kbps\r\nChannel(s)                  : 6 channels\r\nChannel positions           : Front: L C R, Side: L R, LFE\r\nSampling rate               : 48.0 KHz\r\nFrame rate                  : 31.250 fps (1536 spf)\r\nCompression mode            : Lossy\r\nStream size                 : 255 MiB (16%)\r\nAlignment                   : Aligned on interleaves\r\nInterleave, duration        : 64 ms (1.53 video frames)\r\nInterleave, preload duratio : 192 ms\r\nTitle                       : Pan.2015.ReLeNTLesS.audio.V1.English_new\r\nSample Included             : Yes\r\nSource                      : SPARKS Thanks\r\n\r\nPL0T\r\n12-year-old orphan Peter is spirited away to the magical world of Neverland, where he finds both fun and danger, and ultimately discovers his destiny -- to become the hero who will be forever known as Peter Pan.\r\n\r\nCAST\r\nDirector: Joe Wright\r\nWriters: Jason Fuchs, J.M. Barrie (characters)\r\nStars: Levi Miller, Hugh Jackman, Garrett Hedlund\r\n\r\nSCREENS\r\n[img]http://i.imgur.com/mIRaNIU.png[/img]\r\n[img]http://i.imgur.com/39OIqWB.png[/img]\r\n[img]http://i.imgur.com/fSJX69B.png[/img]\r\n[img]http://i.imgur.com/USehBut.png[/img]\r\n[img]http://i.imgur.com/3zmr9P1.png[/img]\r\n[img]http://i.imgur.com/f45O5J2.png[/img]\r\n[img]http://i.imgur.com/HwUYsoG.png[/img]\r\n[img]http://i.imgur.com/ZgFOclt.png[/img]\r\n\r\nTRAiLER\r\n\r\nGREETZ\r\n\r\n\r\nHIVE-CM8, Blackjesus, M0RPH, M00SE, MiLLENiUM,\r\n\r\nMANiX, TiTAN, Anonymous, TuX, \r\n\r\nACAB, KingStoner, FooKas, 4PlayHD, \r\n\r\nSoZE, GodFather, Cld.... \r\n\r\nKeep up the good work guyz","torrent":{"xt":"urn:btih:e00792bccb3b83556bbac52c131736aaaf04fac8","amp;dn":"Pan.2015.BRRiP.XViD.AC3.5.1.ReLeNTLesS","amp;tr":["udp%3A%2F%2Ftracker.leechers-paradise.org%3A6969","udp%3A%2F%2Fzer0day.ch%3A1337","udp%3A%2F%2Fopen.demonii.com%3A1337","udp%3A%2F%2Ftracker.coppersurfer.tk%3A6969","udp%3A%2F%2Fexodus.desync.com%3A6969"],"infoHash":"e00792bccb3b83556bbac52c131736aaaf04fac8","infoHashBuffer":{"type":"Buffer","data":[224,7,146,188,203,59,131,85,107,186,197,44,19,23,54,170,175,4,250,200]},"announce":[],"urlList":[]}}